<?xml version="1.0" encoding="UTF-8" standalone="no"?>
<!-- Created with Inkscape (http://www.inkscape.org/) -->
<svg xmlns:dc="http://purl.org/dc/elements/1.1/" xmlns:cc="http://creativecommons.org/ns#" xmlns:rdf="http://www.w3.org/1999/02/22-rdf-syntax-ns#" xmlns:svg="http://www.w3.org/2000/svg" xmlns="http://www.w3.org/2000/svg" xmlns:xlink="http://www.w3.org/1999/xlink" xmlns:sodipodi="http://sodipodi.sourceforge.net/DTD/sodipodi-0.dtd" xmlns:inkscape="http://www.inkscape.org/namespaces/inkscape" width="256" height="256" id="svg2" sodipodi:version="0.32" inkscape:version="0.48.2 r9819" sodipodi:docname="Evernote.svg" version="1.0" inkscape:output_extension="org.inkscape.output.svg.inkscape">
  <defs id="defs4">
    <linearGradient id="linearGradient3396">
      <stop style="stop-color:#ac631e;stop-opacity:1;" offset="0" id="stop3398"/>
      <stop style="stop-color:#d37e00;stop-opacity:0.34234235;" offset="1" id="stop3400"/>
    </linearGradient>
    <linearGradient id="linearGradient26209">
      <stop style="stop-color:#ffffff;stop-opacity:1;" offset="0" id="stop26211"/>
      <stop style="stop-color:#b8b8b8;stop-opacity:0;" offset="1" id="stop26213"/>
    </linearGradient>
    <linearGradient id="linearGradient2555">
      <stop style="stop-color: rgb(255, 255, 255); stop-opacity: 1;" offset="0" id="stop2557"/>
      <stop style="stop-color:#ffffff;stop-opacity:1" offset="1" id="stop2559"/>
    </linearGradient>
    <linearGradient inkscape:collect="always" xlink:href="#linearGradient26209" id="linearGradient2449" gradientUnits="userSpaceOnUse" gradientTransform="matrix(-0.5914583,0,0,0.5914584,210.0216,142.2324)" x1="-352.17444" y1="353.65329" x2="-404.09592" y2="476.84418"/>
    <linearGradient inkscape:collect="always" xlink:href="#linearGradient26209" id="linearGradient26242" gradientUnits="userSpaceOnUse" gradientTransform="translate(373.64199,318.34399)" x1="85.985443" y1="76.305641" x2="68.308311" y2="58.80706"/>
    <linearGradient inkscape:collect="always" xlink:href="#linearGradient3396" id="linearGradient3402" x1="924.35626" y1="299.34399" x2="700.78485" y2="547.91541" gradientUnits="userSpaceOnUse"/>
    <linearGradient inkscape:collect="always" xlink:href="#linearGradient3396" id="linearGradient4365" x1="678.92773" y1="425.41544" x2="939.07062" y2="425.41544" gradientUnits="userSpaceOnUse"/>
    <linearGradient inkscape:collect="always" xlink:href="#linearGradient3396" id="linearGradient4554" gradientUnits="userSpaceOnUse" x1="678.92773" y1="425.41544" x2="939.07062" y2="425.41544" gradientTransform="translate(-679.35628,-301.91543)"/>
    <linearGradient inkscape:collect="always" xlink:href="#linearGradient3396" id="linearGradient4556" gradientUnits="userSpaceOnUse" x1="678.92773" y1="425.41544" x2="939.07062" y2="425.41544" gradientTransform="translate(-305.71428,16.428572)"/>
    <linearGradient inkscape:collect="always" xlink:href="#linearGradient3396" id="linearGradient4558" gradientUnits="userSpaceOnUse" x1="678.92773" y1="425.41544" x2="939.07062" y2="425.41544" gradientTransform="translate(-305.71428,16.428572)"/>
    <linearGradient inkscape:collect="always" xlink:href="#linearGradient3396" id="linearGradient4560" gradientUnits="userSpaceOnUse" x1="678.92773" y1="425.41544" x2="939.07062" y2="425.41544" gradientTransform="translate(-305.71428,16.428572)"/>
    <linearGradient inkscape:collect="always" xlink:href="#linearGradient3396" id="linearGradient4562" gradientUnits="userSpaceOnUse" x1="678.92773" y1="425.41544" x2="939.07062" y2="425.41544" gradientTransform="translate(-305.71428,16.428572)"/>
    <linearGradient inkscape:collect="always" xlink:href="#linearGradient3396" id="linearGradient4564" gradientUnits="userSpaceOnUse" x1="678.92773" y1="425.41544" x2="939.07062" y2="425.41544" gradientTransform="translate(-305.71428,16.428572)"/>
    <linearGradient inkscape:collect="always" xlink:href="#linearGradient3396" id="linearGradient4566" gradientUnits="userSpaceOnUse" x1="678.92773" y1="425.41544" x2="939.07062" y2="425.41544" gradientTransform="translate(-305.71428,16.428572)"/>
    <linearGradient inkscape:collect="always" xlink:href="#linearGradient3396" id="linearGradient4568" gradientUnits="userSpaceOnUse" x1="678.92773" y1="425.41544" x2="939.07062" y2="425.41544" gradientTransform="translate(-305.71428,16.428572)"/>
    <linearGradient inkscape:collect="always" xlink:href="#linearGradient3396" id="linearGradient4570" gradientUnits="userSpaceOnUse" x1="678.92773" y1="425.41544" x2="939.07062" y2="425.41544" gradientTransform="translate(-305.71428,16.428572)"/>
    <linearGradient inkscape:collect="always" xlink:href="#linearGradient3396" id="linearGradient4572" gradientUnits="userSpaceOnUse" x1="678.92773" y1="425.41544" x2="939.07062" y2="425.41544" gradientTransform="translate(-305.71428,16.428572)"/>
    <linearGradient inkscape:collect="always" xlink:href="#linearGradient3396" id="linearGradient4574" gradientUnits="userSpaceOnUse" x1="678.92773" y1="425.41544" x2="939.07062" y2="425.41544" gradientTransform="translate(-305.71428,16.428572)"/>
    <linearGradient inkscape:collect="always" xlink:href="#linearGradient3396" id="linearGradient4576" gradientUnits="userSpaceOnUse" x1="678.92773" y1="425.41544" x2="939.07062" y2="425.41544" gradientTransform="translate(-305.71428,16.428572)"/>
    <linearGradient inkscape:collect="always" xlink:href="#linearGradient3396" id="linearGradient4578" gradientUnits="userSpaceOnUse" x1="678.92773" y1="425.41544" x2="939.07062" y2="425.41544" gradientTransform="translate(-305.71428,16.428572)"/>
    <linearGradient inkscape:collect="always" xlink:href="#linearGradient3396" id="linearGradient4580" gradientUnits="userSpaceOnUse" x1="678.92773" y1="425.41544" x2="939.07062" y2="425.41544" gradientTransform="translate(-305.71428,16.428572)"/>
    <linearGradient inkscape:collect="always" xlink:href="#linearGradient3396" id="linearGradient4582" gradientUnits="userSpaceOnUse" x1="678.92773" y1="425.41544" x2="939.07062" y2="425.41544" gradientTransform="translate(-305.71428,16.428572)"/>
    <linearGradient inkscape:collect="always" xlink:href="#linearGradient3396" id="linearGradient4584" gradientUnits="userSpaceOnUse" x1="678.92773" y1="425.41544" x2="939.07062" y2="425.41544" gradientTransform="translate(-305.71428,16.428572)"/>
    <linearGradient inkscape:collect="always" xlink:href="#linearGradient3396" id="linearGradient4628" gradientUnits="userSpaceOnUse" x1="678.92773" y1="425.41544" x2="939.07062" y2="425.41544"/>
    <linearGradient inkscape:collect="always" xlink:href="#linearGradient3396" id="linearGradient4631" gradientUnits="userSpaceOnUse" x1="678.92773" y1="425.41544" x2="939.07062" y2="425.41544" gradientTransform="translate(-305.71428,16.428572)"/>
    <linearGradient inkscape:collect="always" xlink:href="#linearGradient3396" id="linearGradient4634" gradientUnits="userSpaceOnUse" x1="678.92773" y1="425.41544" x2="939.07062" y2="425.41544" gradientTransform="translate(-305.71428,16.428572)"/>
    <linearGradient inkscape:collect="always" xlink:href="#linearGradient3396" id="linearGradient4637" gradientUnits="userSpaceOnUse" x1="678.92773" y1="425.41544" x2="939.07062" y2="425.41544" gradientTransform="translate(-305.71428,16.428572)"/>
    <linearGradient inkscape:collect="always" xlink:href="#linearGradient3396" id="linearGradient4640" gradientUnits="userSpaceOnUse" x1="678.92773" y1="425.41544" x2="939.07062" y2="425.41544" gradientTransform="translate(-305.71428,16.428572)"/>
    <linearGradient inkscape:collect="always" xlink:href="#linearGradient3396" id="linearGradient4643" gradientUnits="userSpaceOnUse" x1="678.92773" y1="425.41544" x2="939.07062" y2="425.41544" gradientTransform="translate(-305.71428,16.428572)"/>
    <linearGradient inkscape:collect="always" xlink:href="#linearGradient3396" id="linearGradient4646" gradientUnits="userSpaceOnUse" x1="678.92773" y1="425.41544" x2="939.07062" y2="425.41544" gradientTransform="translate(-305.71428,16.428572)"/>
    <linearGradient inkscape:collect="always" xlink:href="#linearGradient3396" id="linearGradient4649" gradientUnits="userSpaceOnUse" x1="678.92773" y1="425.41544" x2="939.07062" y2="425.41544" gradientTransform="translate(-305.71428,16.428572)"/>
    <linearGradient inkscape:collect="always" xlink:href="#linearGradient3396" id="linearGradient4652" gradientUnits="userSpaceOnUse" x1="678.92773" y1="425.41544" x2="939.07062" y2="425.41544" gradientTransform="translate(-305.71428,16.428572)"/>
    <linearGradient inkscape:collect="always" xlink:href="#linearGradient3396" id="linearGradient4655" gradientUnits="userSpaceOnUse" x1="678.92773" y1="425.41544" x2="939.07062" y2="425.41544" gradientTransform="translate(-305.71428,16.428572)"/>
    <linearGradient inkscape:collect="always" xlink:href="#linearGradient3396" id="linearGradient4658" gradientUnits="userSpaceOnUse" x1="678.92773" y1="425.41544" x2="939.07062" y2="425.41544" gradientTransform="translate(-305.71428,16.428572)"/>
    <linearGradient inkscape:collect="always" xlink:href="#linearGradient3396" id="linearGradient4661" gradientUnits="userSpaceOnUse" x1="678.92773" y1="425.41544" x2="939.07062" y2="425.41544" gradientTransform="translate(-305.71428,16.428572)"/>
    <linearGradient inkscape:collect="always" xlink:href="#linearGradient3396" id="linearGradient4664" gradientUnits="userSpaceOnUse" x1="678.92773" y1="425.41544" x2="939.07062" y2="425.41544" gradientTransform="translate(-305.71428,16.428572)"/>
    <linearGradient inkscape:collect="always" xlink:href="#linearGradient3396" id="linearGradient4667" gradientUnits="userSpaceOnUse" x1="678.92773" y1="425.41544" x2="939.07062" y2="425.41544" gradientTransform="translate(-305.71428,16.428572)"/>
    <linearGradient inkscape:collect="always" xlink:href="#linearGradient3396" id="linearGradient4670" gradientUnits="userSpaceOnUse" x1="678.92773" y1="425.41544" x2="939.07062" y2="425.41544" gradientTransform="translate(-305.71428,16.428572)"/>
    <linearGradient inkscape:collect="always" xlink:href="#linearGradient3396" id="linearGradient4673" gradientUnits="userSpaceOnUse" x1="678.92773" y1="425.41544" x2="939.07062" y2="425.41544" gradientTransform="translate(-305.71428,16.428572)"/>
    <linearGradient inkscape:collect="always" xlink:href="#linearGradient3396" id="linearGradient4676" gradientUnits="userSpaceOnUse" x1="678.92773" y1="425.41544" x2="939.07062" y2="425.41544" gradientTransform="translate(-305.71428,16.428572)"/>
    <linearGradient inkscape:collect="always" xlink:href="#linearGradient3396" id="linearGradient4679" gradientUnits="userSpaceOnUse" x1="678.92773" y1="425.41544" x2="939.07062" y2="425.41544" gradientTransform="translate(-305.71428,16.428572)"/>
    <linearGradient inkscape:collect="always" xlink:href="#linearGradient3396" id="linearGradient4682" gradientUnits="userSpaceOnUse" x1="678.92773" y1="425.41544" x2="939.07062" y2="425.41544" gradientTransform="translate(-305.71428,16.428572)"/>
    <linearGradient inkscape:collect="always" xlink:href="#linearGradient3396" id="linearGradient4685" gradientUnits="userSpaceOnUse" x1="678.92773" y1="425.41544" x2="939.07062" y2="425.41544" gradientTransform="translate(-305.71428,16.428572)"/>
    <linearGradient inkscape:collect="always" xlink:href="#linearGradient3396" id="linearGradient4688" gradientUnits="userSpaceOnUse" x1="678.92773" y1="425.41544" x2="939.07062" y2="425.41544" gradientTransform="translate(-305.71428,16.428572)"/>
    <linearGradient inkscape:collect="always" xlink:href="#linearGradient3396" id="linearGradient4691" gradientUnits="userSpaceOnUse" x1="678.92773" y1="425.41544" x2="939.07062" y2="425.41544" gradientTransform="translate(-305.71428,16.428572)"/>
    <linearGradient inkscape:collect="always" xlink:href="#linearGradient3396" id="linearGradient4712" gradientUnits="userSpaceOnUse" gradientTransform="translate(-679.35628,-301.91543)" x1="678.92773" y1="425.41544" x2="939.07062" y2="425.41544"/>
  </defs>
  <sodipodi:namedview id="base" pagecolor="#ffffff" bordercolor="#666666" borderopacity="1.0" inkscape:pageopacity="0.0" inkscape:pageshadow="2" inkscape:zoom="0.98994949" inkscape:cx="-79.405223" inkscape:cy="161.08952" inkscape:document-units="px" inkscape:current-layer="layer1" inkscape:window-width="1680" inkscape:window-height="988" inkscape:window-x="1272" inkscape:window-y="102" showgrid="false" inkscape:window-maximized="1"/>
  <metadata id="metadata7">
    <rdf:RDF>
      <cc:Work rdf:about="">
        <dc:format>image/svg+xml</dc:format>
        <dc:type rdf:resource="http://purl.org/dc/dcmitype/StillImage"/>
        <dc:title/>
        <dc:creator>
          <cc:Agent>
            <dc:title/>
          </cc:Agent>
        </dc:creator>
        <dc:subject>
          <rdf:Bag/>
        </dc:subject>
        <cc:license rdf:resource="http://creativecommons.org/licenses/publicdomain/"/>
        <dc:description/>
        <dc:contributor>
          <cc:Agent>
            <dc:title/>
          </cc:Agent>
        </dc:contributor>
      </cc:Work>
      <cc:License rdf:about="http://creativecommons.org/licenses/publicdomain/">
        <cc:permits rdf:resource="http://creativecommons.org/ns#Reproduction"/>
        <cc:permits rdf:resource="http://creativecommons.org/ns#Distribution"/>
        <cc:permits rdf:resource="http://creativecommons.org/ns#DerivativeWorks"/>
      </cc:License>
    </rdf:RDF>
  </metadata>
  <g inkscape:label="Layer 1" inkscape:groupmode="layer" id="layer1" transform="translate(-373.642,-318.344)">
    <rect inkscape:export-ydpi="7.7063322" inkscape:export-xdpi="7.7063322" inkscape:export-filename="C:\Documents and Settings\Molumen\Desktop\path3511111.png" transform="scale(-1,1)" ry="35.487503" rx="35.487503" y="328.84921" x="-619.14587" height="234.98955" width="235.00784" id="rect1942" style="fill:#f8f8cd;fill-opacity:1;fill-rule:evenodd;stroke:none;stroke-width:0.87500000000000000;stroke-linecap:square;stroke-linejoin:miter;stroke-miterlimit:4;stroke-dasharray:0.87500000000000000, 1.75000000000000000;stroke-dashoffset:0;stroke-opacity:1"/>
    <path style="fill:url(#linearGradient4712);fill-opacity:1" d="M 45.96875 10.5 C 26.308673 10.5 10.5 26.339923 10.5 46 L 10.5 61.96875 C 11.195357 61.042702 11.881731 59.704139 12.5625 57.90625 C 16.80531 46.70113 23.53444 40.09852 34.9375 35.96875 C 49.3122 30.76276 52.07175 28.54214 54.6875 19.90625 C 55.874487 15.987428 56.546643 13.020753 56.6875 10.5 L 45.96875 10.5 z M 62.3125 10.5 C 61.774323 13.376187 61.5 16.579185 61.5 19.9375 C 61.5 27.23441 64.19037 31.63626 74.59375 41.25 C 83.67911 49.64576 87.20734 48.08293 95.09375 32.15625 C 99.445729 23.36739 101.70835 15.990367 101.90625 10.5 L 62.3125 10.5 z M 106.78125 10.5 C 106.41334 17.589706 107.86069 22.855866 110.6875 23.875 C 115.07912 25.45829 115.32007 25.42584 119.46875 23.25 C 122.61977 21.59739 125.92082 16.250643 127.875 10.5 L 106.78125 10.5 z M 164.96875 10.5 C 169.62537 15.392797 173.79055 15.730957 180.09375 10.5 L 164.96875 10.5 z M 185.46875 10.5 C 181.78638 15.436642 176.09375 24.860386 176.09375 26.5 C 176.09375 27.40884 177.91536 31.41003 180.125 35.40625 C 185.58412 45.27941 189.7506 44.23754 194.28125 31.84375 C 198.08601 21.435668 198.74365 14.328756 196.28125 10.5 L 185.46875 10.5 z M 157.65625 15.21875 C 156.47844 15.283779 155.30184 15.927436 153.53125 17.125 C 147.93436 20.91052 148.05971 26.78192 153.96875 37.46875 C 156.35002 41.77541 158.87084 50.24 159.84375 57.09375 C 161.34274 67.65379 162.23298 69.58631 166.90625 72.90625 C 172.56587 76.92691 177.48048 76.37764 183.4375 71.0625 C 185.35373 69.35275 186.9375 66.50071 186.9375 64.71875 C 186.9375 59.81683 181.52287 46.19584 177.65625 41.375 C 175.77169 39.02536 172.94846 33.66823 171.40625 29.5 C 169.86402 25.33177 166.21915 20.15931 163.3125 18 C 160.65154 16.023218 159.17058 15.135142 157.65625 15.21875 z M 218.125 15.75 C 216.35593 15.876629 214.51816 17.230336 210.9375 20.125 C 205.48394 24.53371 202.92363 28.74868 198.59375 40.46875 C 195.58916 48.6015 193.125 57.94675 193.125 61.25 C 193.125 67.23572 197.23461 74.02952 205.46875 81.625 C 207.57447 83.56741 209.81865 85.15625 210.4375 85.15625 C 211.05636 85.15625 217.2997 77.38689 224.3125 67.90625 L 237.0625 50.6875 L 234.15625 38.53125 C 230.59925 23.59636 229.32125 21.16773 222.90625 17.46875 C 220.85136 16.283864 219.50094 15.651511 218.125 15.75 z M 134.375 21.0625 C 127.61391 21.0625 120.34375 27.78313 120.34375 34.03125 C 120.34375 36.82024 122.64003 39.62996 127.5 42.78125 C 132.78921 46.21088 135.26134 49.40473 136.96875 55.0625 C 138.23912 59.27201 140.06239 63.41812 141.03125 64.28125 C 143.77874 66.72892 150.50744 66.20986 152.5625 63.375 C 156.5169 57.92009 153.30556 42.12603 145.78125 30 C 141.08165 22.42622 139.34398 21.0625 134.375 21.0625 z M 241.40625 29.4375 C 241.43674 33.883578 242.18101 38.898848 243.75 43.4375 C 244.3318 45.120548 244.89868 46.475734 245.5 47.5625 L 245.5 46 C 245.5 40.006064 244.00868 34.379022 241.40625 29.4375 z M 104.75 31.75 C 93.37925 31.75 78.26642 81.90926 87.4375 89.21875 C 91.5792 92.51974 101.54058 87.36779 106.96875 79.09375 C 109.24579 75.62291 109.58683 72.93152 108.71875 65.84375 C 107.92373 59.35248 108.38883 54.70085 110.375 48.625 C 112.98318 40.64633 112.9631 40.08788 110.28125 36 C 108.74154 33.65305 106.25598 31.75 104.75 31.75 z M 53.78125 35.65625 C 49.44262 35.77186 26.59411 49.66951 22.40625 54.75 C 16.21058 62.26626 20.69083 80.8869 30.9375 90.1875 C 36.59576 95.32333 38.4615 95.94294 44.46875 94.71875 C 48.30121 93.93775 56.67506 92.60813 63.0625 91.75 C 78.2962 89.70341 79.52946 88.71966 80.71875 78.0625 C 81.26786 73.14203 82.12048 66.13798 82.59375 62.5 C 83.42575 56.10453 83.00664 55.55999 70.53125 45.71875 C 63.43479 40.1207 55.91039 35.59955 53.78125 35.65625 z M 120.21875 47.0625 C 120.0512 47.070519 119.88154 47.092921 119.71875 47.125 C 117.1023 47.64059 116.38572 49.51052 116 56.875 C 115.59477 64.61183 116.23873 66.97097 120.15625 72.375 C 127.38332 82.3444 132.75 79.76561 132.75 66.34375 C 132.75 57.897742 125.41288 46.813917 120.21875 47.0625 z M 241.34375 63.6875 C 237.95241 63.525708 233.21266 68.076459 226.5625 77.25 C 211.51822 98.00285 210.51934 103.2795 219.59375 113.8125 C 223.71435 118.59531 228.75 119.33064 228.75 115.15625 C 228.75 114.28912 233.366 108.92466 239 103.21875 L 245.5 96.625 L 245.5 67.59375 C 244.41929 65.072824 243.0596 63.769359 241.34375 63.6875 z M 144.15625 74.875 C 139.93976 75.04998 137.5987 77.13429 135.90625 81.3125 C 133.75212 86.63045 133.81208 87.5643 136.71875 93.0625 C 140.47855 100.17447 158.23594 116.93729 163.71875 118.5625 C 167.86279 119.79088 171.84066 129.39487 173.8125 142.84375 C 174.41538 146.95563 175.56289 151.97531 176.34375 154.03125 C 178.60752 159.99157 180.85484 158.56705 189.78125 145.5 C 208.35163 118.31549 211.25734 105.00367 201.40625 92.1875 C 192.04781 80.01224 189.51162 78.32546 184.53125 80.9375 C 182.12637 82.19878 179.16257 85.14884 177.96875 87.5 C 175.81953 91.73277 175.77648 91.71919 172.375 86.65625 C 170.14337 83.33456 165.1119 80.24794 158 77.84375 C 151.86007 75.76814 147.43574 74.7389 144.15625 74.875 z M 10.5 78 L 10.5 86.1875 C 11.45471 82.099871 11.451083 79.452209 10.5 78 z M 118.25 83 C 114.69411 83 106.40625 93.58446 106.40625 98.125 C 106.40625 100.4497 108.88656 104.39613 112.21875 107.40625 C 115.41247 110.29129 118.56749 112.71215 119.21875 112.78125 C 121.35081 113.00753 126.52525 99.15208 126.53125 93.21875 C 126.53704 87.41886 122.95989 83 118.25 83 z M 18.59375 91.75 C 16.298088 91.734984 14.957033 94.336478 13.78125 99.75 C 13.107902 102.85023 11.964995 105.53355 10.5 107.65625 L 10.5 151.28125 C 14.973545 151.33584 19.680282 150.12322 21.53125 147.8125 C 23.09458 145.86086 25.91892 143.20853 27.8125 141.90625 C 32.43007 138.73061 35.125 130.78068 35.125 120.40625 C 35.125 109.35149 32.52917 102.47805 26.03125 96.4375 C 22.730291 93.368888 20.379265 91.761679 18.59375 91.75 z M 85.53125 98.28125 C 81.521096 98.330202 76.250722 98.934562 68.8125 99.84375 C 54.63777 101.57635 45.50764 103.6798 43.15625 105.78125 C 39.72113 108.85122 39.55088 109.86375 40.5625 123.25 C 41.15354 131.07095 42.11658 138.16847 42.6875 139 C 43.25841 139.83152 49.99796 142.81513 57.65625 145.65625 C 65.31454 148.49737 73.1378 150.94822 75.03125 151.09375 C 80.48742 151.51309 91.78911 142.84139 94.71875 136 C 96.19102 132.56192 99.42912 126.90188 101.90625 123.40625 C 107.37472 115.68937 107.47098 114.05287 102.6875 107.9375 C 96.99676 100.66227 94.353588 98.173556 85.53125 98.28125 z M 137.9375 104.125 C 135.055 103.97016 132.17104 105.72206 130.40625 109.4375 C 123.7527 123.44529 123.95613 142.95068 130.8125 147.90625 C 136.11882 151.74148 139.53902 150.19584 145.09375 141.46875 C 150.59139 132.83135 152.50513 124.27773 149.96875 119.53125 C 148.96729 117.65715 146.93476 113.47333 145.46875 110.25 C 143.69242 106.34434 140.82 104.27984 137.9375 104.125 z M 172.53125 107.53125 C 172.63241 107.50221 172.72266 107.51724 172.8125 107.53125 C 172.9083 107.54615 172.98215 107.58775 173.0625 107.65625 C 173.9837 108.44167 173.94132 110.47512 172.9375 113.0625 C 171.46453 116.85912 168.34375 118.85613 168.34375 116 C 168.34375 113.04487 171.01382 107.96684 172.53125 107.53125 z M 245.5 109.03125 C 242.2773 112.72688 239.18614 117.17328 238.125 119.78125 C 236.0411 124.90272 236.09175 125.84094 238.65625 129.75 C 239.8724 131.60377 242.65303 134.40581 245.5 136.6875 L 245.5 109.03125 z M 113.375 119.3125 C 110.5491 119.3125 108.21225 122.1278 104.125 130.5 C 101.12157 136.65213 98.6875 143.6266 98.6875 145.96875 C 98.6875 148.31091 101.05105 155.54177 103.96875 162.0625 C 106.88644 168.58323 109.76249 176.52403 110.34375 179.71875 C 111.02782 183.47853 112.41657 185.53125 114.3125 185.53125 C 115.92349 185.53125 117.25 184.78191 117.25 183.84375 C 117.25 182.90559 120.03087 178.14056 123.4375 173.25 C 126.84413 168.35944 129.6405 163.58276 129.625 162.65625 C 129.6095 161.72974 127.50823 156.76354 124.96875 151.59375 C 122.07616 145.70512 120.34375 139.44524 120.34375 134.875 C 120.34375 124.82003 117.88691 119.3125 113.375 119.3125 z M 213.84375 123.625 C 209.48488 123.56505 205.51112 128.08737 202.25 137.03125 C 200.44379 141.98496 195.56441 150.42358 191.40625 155.78125 C 185.05628 163.96298 183.84375 166.73698 183.84375 173.21875 C 183.84375 181.86066 189.08337 192.04923 196.9375 198.65625 C 202.61774 203.43456 201.6357 203.60225 210.15625 196.5 C 216.00742 191.6228 217.59745 188.8106 219.96875 179.03125 C 221.52185 172.62584 223.5863 159.83066 224.5625 150.59375 L 226.34375 133.8125 L 222.03125 128.6875 C 219.20416 125.33302 216.45907 123.66097 213.84375 123.625 z M 161.375 128.28125 C 160.91929 128.23985 160.45405 128.30744 160.03125 128.53125 C 158.80034 129.18282 154.22179 135.6493 149.84375 142.90625 C 142.48561 155.10296 142.05695 156.46283 144.0625 160.6875 C 145.25578 163.20115 148.44636 167.35498 151.1875 169.9375 C 155.12203 173.64436 157.01371 174.224 160.0625 172.625 C 162.18657 171.511 165.97375 170.59375 168.5 170.59375 C 174.19961 170.59375 175.37786 166.80446 172.5625 157.5 C 171.36569 153.54469 169.91988 146.83805 169.34375 142.59375 C 168.31348 135.00385 164.565 128.57108 161.375 128.28125 z M 236.84375 140.46875 C 234.43563 140.68515 233.48525 145.87138 232.09375 158.34375 C 231.20595 166.30131 228.9219 179.69359 227 188.09375 L 223.5 203.375 L 230.875 212.34375 C 233.7487 215.83194 238.3736 220.33843 242.65625 224 C 244.48894 219.71017 245.5 214.97506 245.5 210 L 245.5 147.09375 C 244.72886 146.44578 243.95519 145.74754 243.1875 144.96875 C 240.27731 142.01649 238.28862 140.33891 236.84375 140.46875 z M 35.21875 150.3125 C 32.952014 150.42145 30.41317 150.95179 27.4375 151.90625 C 19.14718 154.56542 18.90313 154.85321 18.4375 162.5625 C 17.72466 174.36484 26.25689 186.10188 40.59375 193.03125 C 46.55536 195.91264 51.65941 198.2877 51.90625 198.3125 C 52.15309 198.33728 55.07458 196.4384 58.40625 194.09375 C 63.05372 190.82312 64.82389 187.96498 66.0625 181.8125 C 69.81142 163.19086 66.62361 155.7455 54.21875 154.21875 C 50.13882 153.7166 44.35581 152.38403 41.375 151.25 C 39.481395 150.52958 37.485486 150.20355 35.21875 150.3125 z M 93.15625 155.625 C 88.98413 155.625 75.62959 162.35475 73.8125 165.375 C 72.85403 166.96811 71.84659 174.85511 71.5625 182.90625 C 71.05608 197.25901 71.13199 197.65733 76.15625 203.1875 C 78.9746 206.28963 83.04719 209.44649 85.1875 210.1875 C 89.35474 211.63029 90.01132 214.54618 91.90625 239.46875 L 92.375 245.5 L 108.3125 245.5 C 109.82629 242.88915 111.18473 239.36963 112.5625 234.78125 C 116.94736 220.17839 109.50092 201.465 100.3125 204 C 94.33397 205.64942 94.30364 202.97366 100.21875 195.15625 C 102.77373 191.7796 104.875 187.87993 104.875 186.5 C 104.875 180.55929 95.41278 155.625 93.15625 155.625 z M 135.1875 165.40625 C 133.59175 165.40226 132.50328 166.61125 130.5625 169.5 C 128.63927 172.36264 126.2697 178.41772 125.28125 182.96875 C 124.2928 187.51978 122.08568 192.98942 120.375 195.125 C 116.52248 199.93444 116.20736 212.44226 119.8125 217.9375 C 123.73373 223.91454 131.82829 223.04141 135.71875 216.21875 C 137.48388 213.12327 138.9375 209.71028 138.9375 208.625 C 138.9375 207.53973 141.11982 202.91222 143.78125 198.34375 C 146.44268 193.77529 148.625 187.60607 148.625 184.625 C 148.625 176.89836 144.53439 169.33146 138.90625 166.625 C 137.29445 165.84992 136.14495 165.40864 135.1875 165.40625 z M 10.5 170.90625 L 10.5 210 C 10.5 221.1463 15.573466 231.06598 23.5625 237.5625 L 28.09375 225.09375 C 32.12665 213.95984 34.95218 203.87476 34.40625 202.65625 C 33.86032 201.43774 30.81031 198.57614 27.59375 196.3125 C 20.76538 191.50708 13.44156 180.68184 10.5625 171.09375 C 10.542851 171.02831 10.520094 170.9711 10.5 170.90625 z M 173.15625 181.65625 C 171.7441 181.76145 169.76302 182.37879 166.6875 183.375 C 154.88868 187.19684 153.34265 188.66733 149.125 200.03125 C 147.06952 205.56947 143.9281 211.34179 142.125 212.84375 C 136.36384 217.64277 132.85319 227.81124 134.40625 235.28125 C 135.15902 238.90203 135.53937 242.19456 135.25 242.59375 C 134.29038 243.91749 129.65625 240.65138 129.65625 238.65625 C 129.65625 237.57805 127.82649 235.7335 125.59375 234.5625 C 120.82045 232.05907 118.84697 233.79411 114.28125 244.46875 L 113.84375 245.5 L 159.4375 245.5 C 160.76383 244.74694 161.97431 243.95636 162.96875 243.125 C 168.82364 238.23024 180.75 207.51676 180.75 197.34375 C 180.75 193.4574 179.4598 188.11529 177.90625 185.46875 C 176.38695 182.88055 175.57549 181.71382 173.71875 181.65625 C 173.53823 181.65065 173.35799 181.64122 173.15625 181.65625 z M 188.03125 202.9375 C 187.92895 202.94164 187.83914 202.94361 187.75 202.96875 C 186.32383 203.37096 183.68604 208.50089 181.90625 214.375 C 180.12647 220.24911 177.05068 228.10397 175.0625 231.84375 C 171.86948 237.8498 170.85568 242.69188 172 245.5 L 198.03125 245.5 C 198.89172 243.59352 199.3125 238.49547 199.3125 229.8125 C 199.3125 215.28886 199.00272 213.68399 194.84375 208.1875 C 192.5274 205.12622 189.56573 202.8754 188.03125 202.9375 z M 66.5625 205.3125 C 63.965776 205.51334 63.204397 209.46822 63.28125 218.34375 C 63.33671 224.74845 62.67095 231.7277 61.8125 233.84375 C 60.48102 237.12577 59.9876 236.39821 58.53125 228.9375 C 57.59229 224.12728 57.03011 217.93205 57.25 215.15625 C 57.60592 210.66324 56.94049 210.04215 51.25 209.46875 C 45.435 208.88279 44.36207 209.60703 39.40625 217.59375 C 36.41006 222.42233 33.20612 230.52707 32.28125 235.59375 C 31.877565 237.80527 31.429924 240.10064 31 242.1875 C 35.548582 244.29891 40.60659 245.5 45.96875 245.5 L 88.53125 245.5 C 88.582706 245.36437 88.63442 245.2666 88.6875 245.125 C 90.05617 241.474 90.79475 236.3068 90.3125 233.65625 C 89.19626 227.52122 78.63026 212.46652 72.28125 207.9375 C 69.769537 206.14579 67.922689 205.2073 66.5625 205.3125 z M 213.9375 207.15625 C 212.61612 207.128 211.30758 208.31822 209.8125 210.65625 C 206.46264 215.89474 205.13578 226.35062 206.375 237.75 L 207.1875 245.5 L 210.03125 245.5 C 221.70442 245.5 232.00864 239.93007 238.46875 231.28125 C 236.51375 229.58596 234.09678 227.70893 231.6875 226.03125 C 226.8164 222.63928 221.3383 216.9361 219.5 213.375 C 217.35524 209.22 215.63642 207.19257 213.9375 207.15625 z " transform="translate(373.642,318.344)" id="path3190"/>
    <path inkscape:export-ydpi="7.7063322" inkscape:export-xdpi="7.7063322" inkscape:export-filename="C:\Documents and Settings\Molumen\Desktop\path3511111.png" sodipodi:nodetypes="ccccsssc" id="path1950" d="M 557.05665,338.89518 L 446.22721,338.89518 C 416.89033,338.89518 393.27256,362.70492 393.27256,392.28025 L 393.27256,500.40761 C 394.22216,523.49366 397.87485,508.89915 404.82758,483.3329 C 412.90814,453.61975 439.22406,427.65003 471.27219,408.1872 C 495.73352,393.33195 523.11328,383.84595 572.95174,382.94353 C 601.21656,382.43177 598.72124,346.26062 557.05665,338.89518 z" style="opacity:0.55364804999999995;fill:url(#linearGradient2449);fill-opacity:1.0;fill-rule:evenodd;stroke:none;stroke-width:0.87500000000000000;stroke-linecap:square;stroke-linejoin:miter;stroke-miterlimit:4;stroke-dasharray:0.87500000000000000, 1.75000000000000000;stroke-dashoffset:0;stroke-opacity:1"/>
  </g>
</svg>